<svg width="20" height="19" viewBox="0 0 20 19" fill="none" xmlns="http://www.w3.org/2000/svg"><path d="M11.047.646l2.186 4.397c.17.343.5.58.88.635l4.885.705c.958.138 1.341 1.306.648 1.978l-3.536 3.422c-.275.266-.4.65-.336 1.027l.835 4.832c.163.947-.838 1.67-1.695 1.223l-4.37-2.281a1.173 1.173 0 0 0-1.088 0l-4.37 2.28c-.857.447-1.859-.276-1.695-1.223l.834-4.831a1.15 1.15 0 0 0-.336-1.027L.354 8.361c-.694-.672-.31-1.84.647-1.979l4.886-.704c.381-.056.71-.292.88-.635L8.952.646c.428-.862 1.667-.862 2.095 0z" fill="#FFC400"/></svg>